<svg width="128" height="128" viewBox="0 0 128 128" fill="none" xmlns="http://www.w3.org/2000/svg">
<rect width="128" height="128" fill="black"/>
<path d="M77.0816 41.3327H84.8V30C84.8 30 76.6881 30 76.4913 30.0089C58.5071 30.3472 44 45.4342 44 64C44 82.7662 58.824 97.9821 77.0816 98H84.8V86.6655H77.0816C73.732 86.6522 70.4294 85.8559 67.4236 84.3367C64.4179 82.8175 61.7878 80.6154 59.7327 77.8969C57.6776 75.1785 56.2513 72.0151 55.5617 68.6463C54.8721 65.2775 54.9374 61.7917 55.7527 58.4526C56.9967 63.2911 59.7634 67.5706 63.6215 70.6239C67.4796 73.6773 72.2122 75.3329 77.0816 75.3327H84.8V64H77.0816C71.0346 64 66.1124 58.8821 66.1124 52.6673C66.1124 46.4524 71.0346 41.3327 77.0816 41.3327Z" fill="white"/>
</svg>
