<svg width="200" height="48" viewBox="0 0 200 48" fill="none" xmlns="http://www.w3.org/2000/svg">
<g clip-path="url(#clip0)">
<path d="M23.2097 7.96059H28.6246V0.308594C28.6246 0.308594 22.933 0.308594 22.7958 0.308594C10.1783 0.543555 0 10.7293 0 23.2646C0 35.9356 10.4011 46.2085 23.2097 46.2194H28.6246V38.5686H23.2097C20.8592 38.5596 18.5416 38.0216 16.4325 36.9956C14.3233 35.9695 12.4778 34.4822 11.0359 32.6462C9.59393 30.8103 8.59326 28.6739 8.10968 26.3988C7.62611 24.1238 7.67229 21.7697 8.24474 19.5149C9.11703 22.7825 11.058 25.6729 13.7649 27.7353C16.4719 29.7977 19.7927 30.9163 23.2097 30.9166H28.6246V23.2646H23.2097C18.9667 23.2646 15.5148 19.8092 15.5148 15.6126C15.5148 11.416 18.9667 7.96059 23.2097 7.96059Z" fill="#0057FF"/>
<path d="M44.0977 8.91522V4.70044C44.0977 1.71619 45.9271 0 49.3031 0C50.7358 0 51.9236 0.391199 52.8481 1.15664C53.7726 1.92208 54.2465 3.05935 54.2465 4.60234V4.78886H51.3077V4.60234C51.3077 3.25918 50.3464 2.64392 49.1207 2.64392C47.7247 2.64392 47.0267 3.25959 47.0267 4.49092V9.12111C47.0267 10.3516 47.7247 10.9673 49.1207 10.9681C50.3832 10.9681 51.3077 10.4086 51.3077 9.00848V8.82196H54.2465V9.00848C54.2465 10.5575 53.7751 11.7142 52.8518 12.4784C51.9285 13.2426 50.7395 13.6157 49.3068 13.6157C45.9271 13.6157 44.0977 11.9007 44.0977 8.91522Z" fill="#101417"/>
<path d="M56.539 13.3359V0.279812H62.271C64.987 0.279812 66.4344 1.77194 66.4344 4.38316C66.4344 6.15507 65.7364 7.42313 64.3221 8.15103L66.8115 12.39V13.3408H63.9682L61.2154 8.49621H59.4619V13.3408L56.539 13.3359ZM59.4619 6.08119H61.7812C62.9126 6.08119 63.4784 5.6149 63.4784 4.42071C63.4784 3.2459 62.9126 2.79778 61.7812 2.79778H59.4619V6.08119Z" fill="#101417"/>
<path d="M72.6622 13.3359V8.1692L68.4192 1.23056V0.279812H71.3042L74.1524 5.46471L77.1513 0.279812H79.8453V1.23056L75.6047 8.05777V13.3359H72.6622Z" fill="#101417"/>
<path d="M81.5452 13.3359V0.279812H87.467C89.8242 0.279812 91.2385 1.8652 91.2385 4.38316C91.2385 6.90113 89.8242 8.46835 87.467 8.46835H84.4681V13.3359H81.5452ZM84.4681 5.94796H86.9172C87.6519 5.94796 88.2752 5.42596 88.2752 4.38074C88.2752 3.33553 87.6556 2.79778 86.9196 2.79778H84.4706L84.4681 5.94796Z" fill="#101417"/>
<path d="M95.9147 13.3359V2.79899H92.2754V0.279812H102.459V2.79778H98.8376V13.3347L95.9147 13.3359Z" fill="#101417"/>
<path d="M114.557 8.89705C114.557 10.371 114.086 11.5277 113.123 12.367C112.161 13.2063 110.879 13.6157 109.257 13.6157C107.636 13.6157 106.353 13.2063 105.392 12.367C104.43 11.5277 103.962 10.371 103.962 8.89705V4.73799C103.962 1.75373 105.995 0 109.257 0C112.519 0 114.557 1.75373 114.557 4.73799V8.89705ZM111.634 4.58781C111.634 3.52564 110.822 2.64998 109.257 2.64998C107.692 2.64998 106.882 3.52685 106.882 4.58781V9.02786C106.882 10.0912 107.692 10.9657 109.257 10.9657C110.822 10.9657 111.634 10.0888 111.634 9.02786V4.58781Z" fill="#101417"/>
<path d="M44.7896 30.9484V17.8923H50.7114C53.0686 17.8923 54.4829 19.4776 54.4829 21.9956C54.4829 24.5136 53.0686 26.0808 50.7114 26.0808H47.7125V30.9484H44.7896ZM47.7125 23.5604H50.1616C50.8963 23.5604 51.5196 23.0372 51.5196 21.9932C51.5196 20.9492 50.8975 20.4078 50.1616 20.4078H47.7125V23.5604Z" fill="#101417"/>
<path d="M56.539 30.9484V17.8923H62.271C64.987 17.8923 66.4344 19.3844 66.4344 21.9956C66.4344 23.7675 65.7364 25.0356 64.3221 25.7635L66.8115 30.0025V30.9532H63.9682L61.2154 26.1086H59.4619V30.9532L56.539 30.9484ZM59.4619 23.6924H61.7812C62.9126 23.6924 63.4784 23.2261 63.4784 22.0331C63.4784 20.8402 62.9126 20.4102 61.7812 20.4102H59.4619V23.6924Z" fill="#101417"/>
<path d="M79.2062 26.5095C79.2062 27.9822 78.7347 29.1389 77.7735 29.9782C76.8122 30.8175 75.5289 31.2281 73.9077 31.2281C72.2864 31.2281 71.0031 30.8175 70.0406 29.9782C69.0781 29.1389 68.6079 27.9822 68.6079 26.5095V22.3492C68.6079 19.365 70.6443 17.6124 73.9077 17.6124C77.171 17.6124 79.2062 19.365 79.2062 22.3492V26.5095ZM76.2881 22.2002C76.2881 21.1369 75.4775 20.2624 73.9126 20.2624C72.3476 20.2624 71.5357 21.1381 71.5357 22.2002V26.6451C71.5357 27.7073 72.3464 28.583 73.9126 28.583C75.4787 28.583 76.2881 27.7061 76.2881 26.6451V22.2002Z" fill="#101417"/>
<path d="M81.3562 26.524V22.3092C81.3562 19.325 83.1857 17.6088 86.5605 17.6088C87.9944 17.6088 89.1822 18 90.1116 18.7654C91.0411 19.5309 91.5064 20.6669 91.5064 22.216V22.4061H88.5675V22.2196C88.5675 20.8765 87.605 20.2612 86.3793 20.2612C84.9849 20.2612 84.2874 20.8765 84.2866 22.107V26.7335C84.2866 27.9641 84.9841 28.5793 86.3793 28.5793C87.643 28.5793 88.5675 28.0198 88.5675 26.6209V26.4344H91.5064V26.6209C91.5064 28.1687 91.0349 29.3254 90.1116 30.0908C89.1884 30.8563 87.9993 31.2281 86.5605 31.2281C83.1857 31.2281 81.3562 29.5119 81.3562 26.524Z" fill="#101417"/>
<path d="M93.8222 30.9484V17.8923H102.516V20.4102H96.7451V23.208H101.643V25.6145H96.7451V28.4304H102.553V30.9484H93.8222Z" fill="#101417"/>
<path d="M105.542 30.0533C104.543 29.2697 104.052 28.1506 104.052 26.7142H106.976C106.963 27.1409 107.118 27.5558 107.41 27.8708C108.013 28.4498 108.73 28.5794 109.578 28.5794C110.842 28.5794 111.502 28.0949 111.502 27.3295C111.505 27.1566 111.456 26.9867 111.362 26.8409C111.268 26.6952 111.133 26.5799 110.973 26.5095C110.615 26.3036 109.955 26.0432 108.974 25.7259L107.919 25.371C106.939 25.0549 106.316 24.7752 105.542 24.1962C104.788 23.6185 104.373 22.7429 104.373 21.6225C104.373 20.4114 104.807 19.4425 105.693 18.7158C106.578 17.9891 107.787 17.6161 109.314 17.6161C110.804 17.6161 112.008 17.9891 112.935 18.7534C113.862 19.5176 114.311 20.6185 114.311 22.0743H111.372C111.372 20.8801 110.448 20.2649 109.241 20.2649C108.035 20.2649 107.336 20.7118 107.336 21.476C107.336 21.8866 107.525 22.0913 107.807 22.3153C107.958 22.4449 108.335 22.5757 108.542 22.6508L109.503 22.9863L110.483 23.3218C113.029 24.1986 114.463 25.1688 114.463 27.1829C114.463 29.627 112.652 31.2305 109.32 31.2305C107.805 31.2281 106.541 30.8369 105.542 30.0533Z" fill="#101417"/>
<path d="M117.452 30.0533C116.453 29.2697 115.963 28.1506 115.963 26.7142H118.886C118.873 27.1409 119.028 27.5558 119.319 27.8708C119.923 28.4498 120.639 28.5794 121.488 28.5794C122.752 28.5794 123.412 28.0949 123.412 27.3295C123.415 27.1567 123.366 26.9868 123.272 26.8411C123.179 26.6953 123.043 26.58 122.884 26.5095C122.525 26.3036 121.865 26.0432 120.885 25.7259L119.829 25.371C118.849 25.0549 118.226 24.7752 117.453 24.1962C116.699 23.6185 116.284 22.7429 116.284 21.6225C116.284 20.4114 116.717 19.4425 117.604 18.7158C118.49 17.9891 119.696 17.6161 121.225 17.6161C122.714 17.6161 123.919 17.9891 124.846 18.7534C125.773 19.5176 126.222 20.6185 126.222 22.0743H123.283C123.283 20.8801 122.36 20.2649 121.152 20.2649C119.945 20.2649 119.248 20.7118 119.248 21.476C119.248 21.8866 119.437 22.0913 119.72 22.3153C119.87 22.4449 120.248 22.5757 120.454 22.6508L121.417 22.9863L122.397 23.3218C124.942 24.1986 126.375 25.1688 126.375 27.1829C126.375 29.627 124.565 31.2305 121.232 31.2305C119.715 31.2281 118.451 30.8369 117.452 30.0533Z" fill="#101417"/>
<path d="M128.729 30.9484V17.8923H131.652V30.9484H128.729Z" fill="#101417"/>
<path d="M134.556 30.9484V17.8923H137.234L141.93 25.5551V17.8923H144.853V30.9484H142.175L137.479 23.283V30.9484H134.556Z" fill="#101417"/>
<path d="M148.681 29.96C147.814 29.1013 147.379 27.9641 147.379 26.5277V22.3129C147.379 19.3468 149.323 17.6124 152.66 17.6124C154.15 17.6124 155.353 18.0036 156.3 18.8054C157.247 19.6072 157.719 20.7275 157.719 22.1639H154.78C154.78 20.9891 153.875 20.2624 152.499 20.2624C151.047 20.2624 150.311 20.9891 150.311 22.1833V26.524C150.311 27.7182 151.103 28.5757 152.461 28.5757C152.933 28.5852 153.4 28.4796 153.821 28.2684C154.242 28.0572 154.604 27.7468 154.875 27.3646V26.2079H152.612V23.805H157.719V30.9507H156.154L155.551 29.7941C154.891 30.671 153.627 31.2305 152.269 31.2305C150.755 31.2281 149.568 30.7994 148.681 29.96Z" fill="#101417"/>
<path d="M44.0977 46.2537V38.5605H45.5316V40.9368C45.9578 40.5758 46.505 40.3853 47.0659 40.4027C48.2574 40.4027 49.1182 41.1294 49.1182 42.498V44.2868C49.1182 45.6518 48.261 46.3821 47.0659 46.3821C46.7465 46.3842 46.4299 46.3236 46.1344 46.2039C45.8389 46.0841 45.5703 45.9076 45.3442 45.6845L44.9254 46.2513L44.0977 46.2537ZM45.5316 44.4976C45.9406 44.9009 46.3483 45.1031 46.7683 45.1031C46.8903 45.1058 47.0114 45.0839 47.1245 45.0386C47.2375 44.9934 47.34 44.9257 47.4256 44.8399C47.5113 44.754 47.5783 44.6518 47.6226 44.5394C47.6668 44.427 47.6874 44.3068 47.6831 44.1863V42.6118C47.6874 42.4913 47.6668 42.3711 47.6226 42.2587C47.5783 42.1463 47.5113 42.0441 47.4256 41.9582C47.34 41.8724 47.2375 41.8047 47.1245 41.7595C47.0114 41.7142 46.8903 41.6923 46.7683 41.695C46.3483 41.695 45.9406 41.8912 45.5316 42.2945V44.4976Z" fill="#101417" fill-opacity="0.68"/>
<path d="M51.2242 47.9994V47.4859L51.7655 46.253L49.7793 41.2001V40.5352H51.103L52.472 44.3272L53.7627 40.5412H55.0644V41.2061L52.3949 48.0055L51.2242 47.9994Z" fill="#101417" fill-opacity="0.68"/>
<path d="M58.1328 43.6676V41.2005C58.1328 39.4552 59.2141 38.4512 61.1672 38.4512C61.9937 38.4512 62.6783 38.6801 63.2183 39.127C63.7583 39.5739 64.035 40.24 64.035 41.1242V41.2332H62.4689V41.1242C62.4689 40.2836 61.8566 39.8694 61.0668 39.8694C60.1521 39.8694 59.699 40.3163 59.699 41.0915V43.7766C59.699 44.5517 60.1521 44.9986 61.0668 44.9986C61.8615 44.9986 62.4689 44.6062 62.4689 43.7439V43.6349H64.035V43.7439C64.035 44.628 63.7595 45.3038 63.2183 45.7519C62.677 46.2001 61.9937 46.4168 61.1672 46.4168C59.2141 46.4168 58.1328 45.4177 58.1328 43.6676Z" fill="#101417" fill-opacity="0.68"/>
<path d="M65.0488 44.2666V42.5214C65.0488 41.2654 65.9427 40.4043 67.564 40.4043C69.1645 40.4043 70.0694 41.2654 70.0694 42.5214V44.2666C70.0694 45.5214 69.1645 46.3837 67.564 46.3837C65.9427 46.3861 65.0488 45.5214 65.0488 44.2666ZM68.6342 44.2061V42.5868C68.6342 42.0624 68.2595 41.6917 67.564 41.6917C66.8685 41.6917 66.4827 42.0733 66.4827 42.5868V44.2061C66.4827 44.7196 66.8587 45.1011 67.564 45.1011C68.2693 45.1011 68.6342 44.7257 68.6342 44.2061Z" fill="#101417" fill-opacity="0.68"/>
<path d="M71.3047 46.253V40.5352H72.7374V46.253H71.3047Z" fill="#101417" fill-opacity="0.68"/>
<path d="M74.2285 46.2531V40.5353H75.0563L75.4751 41.1021C75.6988 40.8778 75.9659 40.7005 76.2605 40.5807C76.555 40.4608 76.8709 40.4009 77.1894 40.4044C78.436 40.4044 79.1977 41.2329 79.1977 42.6196V46.2531H77.7576V42.7068C77.7576 42.0407 77.3903 41.6919 76.8649 41.6919C76.4229 41.6919 76.0261 41.8881 75.6612 42.2914V46.2531H74.2285Z" fill="#101417" fill-opacity="0.68"/>
<path d="M81.0472 45.8168C80.8165 45.633 80.6307 45.4002 80.5035 45.1356C80.3763 44.8709 80.311 44.5814 80.3125 44.2884H81.7354C81.7905 44.8019 82.2975 45.0962 83.0824 45.0962C83.6016 45.0962 83.9322 44.9109 83.9322 44.6118C83.9322 44.4034 83.8 44.2726 83.5465 44.2181L81.946 43.8148C80.9419 43.5641 80.435 43.0288 80.435 42.2319C80.435 41.097 81.3179 40.3994 82.7848 40.3994C84.2738 40.3994 85.1788 41.1079 85.2228 42.3627H83.784C83.751 41.9158 83.375 41.6869 82.6697 41.6869C82.0844 41.6869 81.8199 41.8831 81.8199 42.1447C81.8199 42.33 81.9852 42.4729 82.3158 42.5492L83.9604 42.9525C84.8653 43.1705 85.3171 43.6792 85.3171 44.5015C85.3171 45.6703 84.3681 46.3788 82.9012 46.3788C82.1395 46.3861 81.5223 46.1984 81.0472 45.8168Z" fill="#101417" fill-opacity="0.68"/>
<path d="M86.6738 46.2539V38.6152H90.1258C91.5046 38.6152 92.3434 39.543 92.3434 41.0266C92.3434 42.5103 91.5046 43.4271 90.1258 43.4271H88.2412V46.2539H86.6738ZM88.2412 42.0743H89.8405C90.3597 42.0743 90.7564 41.7109 90.7564 41.0157C90.7564 40.3205 90.3597 39.9681 89.8405 39.9681H88.2412V42.0743Z" fill="#101417" fill-opacity="0.68"/>
<path d="M93.3928 45.9368C93.0255 45.6425 92.8418 45.2101 92.8418 44.6821C92.8418 43.4927 93.6365 42.8266 95.1806 42.8266H96.3709V42.4632C96.3709 41.9497 96.0623 41.6881 95.4439 41.6881C94.8255 41.6881 94.5169 41.9497 94.5169 42.3421H93.1173C93.1173 41.1637 93.912 40.4043 95.4439 40.4043C96.9758 40.4043 97.806 41.1782 97.806 42.3676V46.2529H96.9831L96.5631 45.697C96.0833 46.15 95.4422 46.3976 94.779 46.3861C94.2784 46.3988 93.7888 46.24 93.3928 45.9368V45.9368ZM96.3709 44.5404V43.9069H95.1794C94.5072 43.9069 94.2745 44.1903 94.2745 44.4968C94.2745 44.9001 94.5402 45.1023 95.0802 45.1023C95.3238 45.1073 95.5655 45.0596 95.7884 44.9625C96.0113 44.8655 96.2101 44.7214 96.3709 44.5404Z" fill="#101417" fill-opacity="0.68"/>
<path d="M99.2402 46.253V40.5352H100.674V46.253H99.2402Z" fill="#101417" fill-opacity="0.68"/>
<path d="M107.024 38.5605V46.2537H106.192L105.773 45.6869C105.547 45.9105 105.279 46.0875 104.983 46.2076C104.688 46.3278 104.371 46.3887 104.051 46.387C102.861 46.387 102.004 45.6603 102.004 44.2893V42.5004C102.004 41.1354 102.861 40.4051 104.056 40.4051C104.615 40.3883 105.16 40.5778 105.586 40.9368V38.5605H107.024ZM105.591 42.2921C105.182 41.8888 104.774 41.6926 104.354 41.6926C104.232 41.6898 104.111 41.7118 103.998 41.7571C103.885 41.8023 103.782 41.87 103.696 41.9558C103.611 42.0417 103.544 42.1439 103.5 42.2563C103.455 42.3687 103.435 42.4889 103.439 42.6094V44.1839C103.435 44.3044 103.455 44.4246 103.5 44.537C103.544 44.6494 103.611 44.7516 103.696 44.8375C103.782 44.9233 103.885 44.991 103.998 45.0362C104.111 45.0815 104.232 45.1034 104.354 45.1007C104.774 45.1007 105.182 44.9045 105.591 44.4952V42.2921Z" fill="#101417" fill-opacity="0.68"/>
</g>
<defs>
<clipPath id="clip0">
<rect width="200" height="48" fill="white"/>
</clipPath>
</defs>
</svg>
